<svg width="48" height="48" viewBox="0 0 48 48" fill="none" xmlns="http://www.w3.org/2000/svg">
<circle cx="24" cy="24" r="24" fill="#132E37"/>
<path d="M27.6408 17.0584H34.0006V18.6013H27.6408V17.0584ZM21.2682 23.1632C22.674 22.4905 23.4104 21.4672 23.4104 19.886C23.4104 16.7587 21.0833 16 18.3959 16H11V31.6972H18.6031C21.4531 31.6972 24.1277 30.3264 24.1277 27.1385C24.1277 25.1684 23.1968 23.7115 21.2682 23.1632V23.1632ZM14.4493 18.6778H17.685C18.9315 18.6778 20.0504 19.0253 20.0504 20.4726C20.0504 21.8051 19.1801 22.3407 17.9464 22.3407H14.4493V18.6778ZM18.1313 29.0321H14.4461V24.7093H18.2046C19.722 24.7093 20.6816 25.3437 20.6816 26.9504C20.6816 28.5316 19.5372 29.0321 18.1313 29.0321V29.0321ZM36.4871 26.1789C36.4871 22.8157 34.5202 20.0135 30.9625 20.0135C27.5037 20.0135 25.151 22.6181 25.151 26.0323C25.151 29.5708 27.3793 32 30.9625 32C33.6754 32 35.4319 30.779 36.2767 28.1745H33.5256C33.2259 29.1468 32.0082 29.6569 31.0614 29.6569C29.2315 29.6569 28.2751 28.5858 28.2751 26.7655H36.4648C36.4744 26.5774 36.4871 26.3798 36.4871 26.1789V26.1789ZM28.2751 24.7954C28.374 23.3003 29.3718 22.3662 30.8637 22.3662C32.4321 22.3662 33.2164 23.2875 33.3534 24.7954H28.2751Z" fill="white"/>
</svg>
