<svg width="256" height="26" viewBox="0 0 256 26" fill="none" xmlns="http://www.w3.org/2000/svg">
<path d="M0 25.6417H17.4853V21.2323H5.47045V15.1924H16.5377V10.7829H5.47045V4.75534H17.4346V0.345843H0V25.6417ZM21.7839 25.6417H38.3469V21.2323H27.2544V0.345843H21.7839V25.6417ZM47.4399 0.345843H41.9697V25.6417H47.4399V0.345843ZM56.4005 25.6417L58.3209 19.8735H67.6574L69.5776 25.6417H75.4398L66.5202 0.345843H59.4706L50.5385 25.6417H56.4005ZM59.7106 15.6988L62.8944 6.12635H63.0964L66.2802 15.6988H59.7106ZM91.9996 7.62088H97.2426C97.1668 3.11258 93.3766 0 87.6156 0C81.9429 0 77.7865 3.06319 77.8117 7.65794C77.7991 11.3881 80.4901 13.5249 84.8615 14.5501L87.6788 15.2418C90.4961 15.9088 92.0628 16.6992 92.0754 18.4038C92.0628 20.2565 90.2686 21.5163 87.4892 21.5163C84.6466 21.5163 82.6 20.2318 82.423 17.6997H77.1295C77.2685 23.1714 81.2734 26 87.5525 26C93.8693 26 97.5837 23.0479 97.5964 18.4162C97.5837 14.2043 94.3368 11.9686 89.8392 10.9805L87.5144 10.437C85.2656 9.93062 83.3832 9.11542 83.4211 7.29974C83.4211 5.66934 84.8994 4.47124 87.5778 4.47124C90.1928 4.47124 91.7974 5.6323 91.9996 7.62088ZM132.339 9.20189C131.619 3.35961 127.096 0 121.108 0C114.273 0 109.055 4.71828 109.055 12.9938C109.055 21.2446 114.184 25.9877 121.108 25.9877C127.741 25.9877 131.746 21.677 132.339 17.0204L126.806 16.9957C126.288 19.7007 124.115 21.257 121.196 21.257C117.267 21.257 114.601 18.4038 114.601 12.9938C114.601 7.73204 117.229 4.73063 121.234 4.73063C124.229 4.73063 126.389 6.42278 126.806 9.20189H132.339ZM140.235 25.6417L142.156 19.8735H151.492L153.413 25.6417H159.275L150.355 0.345843H143.306L134.373 25.6417H140.235ZM143.545 15.6988L146.729 6.12635H146.931L150.115 15.6988H143.545ZM175.835 7.62088H181.077C181.002 3.11258 177.212 0 171.451 0C165.778 0 161.621 3.06319 161.647 7.65794C161.634 11.3881 164.325 13.5249 168.696 14.5501L171.514 15.2418C174.331 15.9088 175.898 16.6992 175.91 18.4038C175.898 20.2565 174.104 21.5163 171.324 21.5163C168.481 21.5163 166.435 20.2318 166.258 17.6997H160.964C161.103 23.1714 165.108 26 171.387 26C177.704 26 181.418 23.0479 181.431 18.4162C181.418 14.2043 178.172 11.9686 173.674 10.9805L171.35 10.437C169.101 9.93062 167.218 9.11542 167.256 7.29974C167.256 5.66934 168.734 4.47124 171.413 4.47124C174.028 4.47124 175.632 5.6323 175.835 7.62088ZM184.126 4.75534H192.047V25.6417H197.455V4.75534H205.376V0.345843H184.126V4.75534ZM208.875 25.6417H214.345V16.6745H218.338L223.239 25.6417H229.278L223.783 15.8099C226.727 14.5748 228.357 12.0674 228.357 8.60901C228.357 3.58194 224.957 0.345843 219.084 0.345843H208.875V25.6417ZM214.345 12.3762V4.71828H218.034C221.193 4.71828 222.721 6.08929 222.721 8.60901C222.721 11.1164 221.193 12.3762 218.059 12.3762H214.345ZM256 12.9938C256 4.71828 250.744 0 243.883 0C236.986 0 231.767 4.71828 231.767 12.9938C231.767 21.2323 236.986 25.9877 243.883 25.9877C250.744 25.9877 256 21.2693 256 12.9938ZM250.454 12.9938C250.454 18.3544 247.851 21.257 243.883 21.257C239.903 21.257 237.313 18.3544 237.313 12.9938C237.313 7.63324 239.903 4.73063 243.883 4.73063C247.851 4.73063 250.454 7.63324 250.454 12.9938Z" fill="#181717"/>
</svg>
