<svg width="48" height="48" viewBox="0 0 48 48" fill="none" xmlns="http://www.w3.org/2000/svg">
<circle cx="24" cy="24" r="24" fill="#132E37"/>
<path d="M23.9975 18.869C21.1581 18.869 18.8665 21.1606 18.8665 24C18.8665 26.8394 21.1581 29.131 23.9975 29.131C26.8369 29.131 29.1285 26.8394 29.1285 24C29.1285 21.1606 26.8369 18.869 23.9975 18.869ZM23.9975 27.3348C22.1613 27.3348 20.6627 25.8362 20.6627 24C20.6627 22.1638 22.1613 20.6652 23.9975 20.6652C25.8337 20.6652 27.3323 22.1638 27.3323 24C27.3323 25.8362 25.8337 27.3348 23.9975 27.3348ZM29.3386 17.4631C28.6757 17.4631 28.1403 17.9984 28.1403 18.6614C28.1403 19.3243 28.6757 19.8597 29.3386 19.8597C30.0016 19.8597 30.5369 19.3268 30.5369 18.6614C30.5371 18.504 30.5063 18.3481 30.4461 18.2026C30.386 18.0571 30.2977 17.9249 30.1864 17.8136C30.0751 17.7023 29.9429 17.614 29.7974 17.5539C29.6519 17.4937 29.496 17.4629 29.3386 17.4631V17.4631ZM33.9993 24C33.9993 22.6191 34.0118 21.2506 33.9342 19.8722C33.8567 18.2711 33.4914 16.8502 32.3206 15.6794C31.1473 14.5061 29.7289 14.1433 28.1278 14.0658C26.7469 13.9882 25.3784 14.0007 24 14.0007C22.6191 14.0007 21.2506 13.9882 19.8722 14.0658C18.2711 14.1433 16.8502 14.5086 15.6794 15.6794C14.5061 16.8527 14.1433 18.2711 14.0658 19.8722C13.9882 21.2531 14.0007 22.6216 14.0007 24C14.0007 25.3784 13.9882 26.7494 14.0658 28.1278C14.1433 29.7289 14.5086 31.1498 15.6794 32.3206C16.8527 33.4939 18.2711 33.8567 19.8722 33.9342C21.2531 34.0118 22.6216 33.9993 24 33.9993C25.3809 33.9993 26.7494 34.0118 28.1278 33.9342C29.7289 33.8567 31.1498 33.4914 32.3206 32.3206C33.4939 31.1473 33.8567 29.7289 33.9342 28.1278C34.0143 26.7494 33.9993 25.3809 33.9993 24V24ZM31.7978 29.899C31.6151 30.3543 31.395 30.6945 31.0423 31.0448C30.6895 31.3975 30.3518 31.6176 29.8965 31.8003C28.5806 32.3231 25.456 32.2055 23.9975 32.2055C22.539 32.2055 19.4119 32.3231 18.096 31.8028C17.6407 31.6201 17.3005 31.4 16.9502 31.0473C16.5975 30.6945 16.3774 30.3568 16.1947 29.9015C15.6744 28.5831 15.792 25.4585 15.792 24C15.792 22.5415 15.6744 19.4144 16.1947 18.0985C16.3774 17.6432 16.5975 17.303 16.9502 16.9527C17.303 16.6025 17.6407 16.3799 18.096 16.1972C19.4119 15.6769 22.539 15.7945 23.9975 15.7945C25.456 15.7945 28.5831 15.6769 29.899 16.1972C30.3543 16.3799 30.6945 16.6 31.0448 16.9527C31.3975 17.3055 31.6176 17.6432 31.8003 18.0985C32.3206 19.4144 32.203 22.5415 32.203 24C32.203 25.4585 32.3206 28.5831 31.7978 29.899Z" fill="white"/>
</svg>
