<svg width="48" height="48" viewBox="0 0 48 48" fill="none" xmlns="http://www.w3.org/2000/svg">
<circle cx="24" cy="24" r="24" fill="#132E37"/>
<path d="M18.4771 34H14.3307V20.6471H18.4771V34ZM16.4014 18.8257C15.0757 18.8257 14 17.7271 14 16.4014C14 15.7645 14.253 15.1537 14.7034 14.7034C15.1537 14.253 15.7645 14 16.4014 14C17.0383 14 17.6491 14.253 18.0995 14.7034C18.5499 15.1537 18.8029 15.7645 18.8029 16.4014C18.8029 17.7271 17.7271 18.8257 16.4014 18.8257ZM33.9957 34H29.8586V27.5C29.8586 25.9507 29.8271 23.9643 27.7029 23.9643C25.5471 23.9643 25.2164 25.6471 25.2164 27.3886V34H21.0743V20.6471H25.0507V22.4686H25.1086C25.6621 21.4193 27.0143 20.3121 29.0314 20.3121C33.2279 20.3121 33.9993 23.0757 33.9993 26.665V34H33.9957Z" fill="white"/>
</svg>
