<svg width="48" height="48" viewBox="0 0 48 48" fill="none" xmlns="http://www.w3.org/2000/svg">
<circle cx="24" cy="24" r="24" fill="#132E37"/>
<path d="M32.5061 17.8802L34.1113 16.3378V16H28.5519L24.5899 25.909L20.0831 16H14.254V16.3378L16.129 18.6056C16.3123 18.7732 16.4065 19.0193 16.383 19.2655V28.1768C16.4406 28.4989 16.3385 28.8262 16.1133 29.0592L14 31.6334V31.966H19.9863V31.6282L17.8756 29.0619C17.7625 28.9471 17.6775 28.8077 17.627 28.6546C17.5766 28.5016 17.5622 28.3389 17.5849 28.1794V20.47L22.8406 31.9712H23.4507L27.9705 20.47V29.6327C27.9705 29.8736 27.9705 29.9234 27.8134 30.0831L26.1872 31.6622V32H34.0746V31.6622L32.5061 30.1198C32.3699 30.0151 32.2992 29.8396 32.328 29.6694V18.3306C32.3144 18.2465 32.3238 18.1602 32.3551 18.0809C32.3865 18.0017 32.4386 17.9323 32.5061 17.8802Z" fill="white"/>
</svg>
