<svg width="20" height="21" viewBox="0 0 20 21" fill="none" xmlns="http://www.w3.org/2000/svg">
<path d="M19 10C19.0034 11.3199 18.6951 12.6219 18.1 13.8C17.3944 15.2118 16.3098 16.3992 14.9674 17.2293C13.6251 18.0594 12.0782 18.4994 10.5 18.5C9.18013 18.5035 7.87812 18.1951 6.7 17.6L1 19.5L2.9 13.8C2.30493 12.6219 1.99656 11.3199 2 10C2.00061 8.42179 2.44061 6.87488 3.27072 5.53258C4.10083 4.19028 5.28825 3.1056 6.7 2.40003C7.87812 1.80496 9.18013 1.49659 10.5 1.50003H11C13.0843 1.61502 15.053 2.49479 16.5291 3.97089C18.0052 5.44699 18.885 7.41568 19 9.50003V10Z" stroke="white" stroke-width="2" stroke-linecap="round" stroke-linejoin="round"/>
</svg>
